<?xml version="1.0" encoding="UTF-8"?>
<svg width="220px" height="80px" id="b" data-name="Camada 2" xmlns="http://www.w3.org/2000/svg" viewBox="0 0 1551 156.66">
  <defs>
    <style>
      .i {
        fill: #0f7b2d;
      }

      .j {
        fill: #f56c1b;
      }
    </style>
  </defs>
  <g id="c" data-name="Camada 1">
    <g id="d" data-name="1">
      <g>
        <g id="e" data-name="fine">
          <path class="j" d="M318.6,26.95V5.12h-107.66V154.95h25.04v-61h74.7v-21.83h-74.7V26.95h82.62Z"/>
          <path class="j" d="M340.43,5.12V154.95h25.04V5.12h-25.04Z"/>
          <path class="j" d="M494.96,5.12V114.71L419.2,5.12h-22.47V154.95h24.4V45.79l75.55,109.16h22.69V5.12h-24.4Z"/>
          <path class="j" d="M658.27,26.74V5.12h-109.8V136.75c0,5.43,1.68,9.81,5.03,13.16,3.35,3.35,7.81,5.03,13.38,5.03h91.39v-21.62h-84.76v-44.09h78.34v-21.83h-78.34V26.74h84.76Z"/>
        </g>
        <g id="f" data-name="floors">
          <path class="i" d="M848.33,26.95V5.12h-107.66V154.95h25.04v-61h74.7v-21.83h-74.7V26.95h82.62Z"/>
          <path class="i" d="M893.06,133.11V5.12h-25.04V136.97c0,5.43,1.64,9.77,4.92,13.06,3.28,3.28,7.78,4.92,13.48,4.92h87.97v-21.83h-81.33Z"/>
          <path class="i" d="M1112.96,44.16h-13.27c-7.66,0-13.87-6.21-13.87-13.87v-13.89h11.14c-2.6-2.28-5.46-4.29-8.59-6.03-8.35-4.64-17.95-6.96-28.79-6.96h-22.69c-10.85,0-20.41,2.32-28.68,6.96-8.28,4.64-14.7,11.2-19.26,19.69-4.57,8.49-6.85,18.3-6.85,29.43v41.09c0,11.13,2.28,20.94,6.85,29.43,4.57,8.49,10.99,15.06,19.26,19.69,8.28,4.64,17.84,6.96,28.68,6.96h22.69c10.84,0,20.44-2.32,28.79-6.96,8.35-4.63,14.8-11.2,19.37-19.69,4.56-8.49,6.85-18.3,6.85-29.43V59.49c0-5.43-.55-10.53-1.63-15.33Zm-23.41,55.57c0,10.42-2.78,18.83-8.35,25.25-5.57,6.42-12.77,9.63-21.62,9.63h-22.47c-8.99,0-16.23-3.21-21.72-9.63-5.5-6.42-8.24-14.84-8.24-25.25V60.34c0-10.41,2.75-18.83,8.24-25.25,5.49-6.42,12.73-9.63,21.72-9.63h22.47c8.99,0,16.23,3.21,21.72,9.63,5.49,6.42,8.24,14.84,8.24,25.25v39.39Z"/>
          <path class="i" d="M1254.76,21.23c.57,.92,1.25,1.77,2.02,2.53-.64-.87-1.31-1.71-2.02-2.53Zm11.31,23.23h-11.41c-7.66,0-13.87-6.21-13.87-13.87v-13.89h9.54c-2.68-2.41-5.66-4.51-8.92-6.33-8.35-4.64-17.95-6.96-28.79-6.96h-22.69c-10.85,0-20.41,2.32-28.68,6.96-8.28,4.64-14.7,11.2-19.26,19.69-4.57,8.49-6.85,18.3-6.85,29.43v41.09c0,11.13,2.28,20.94,6.85,29.43,4.56,8.49,10.98,15.06,19.26,19.69,8.27,4.64,17.83,6.96,28.68,6.96h22.69c10.84,0,20.44-2.32,28.79-6.96,8.35-4.63,14.8-11.2,19.37-19.69,4.57-8.49,6.85-18.3,6.85-29.43V59.49c0-5.31-.52-10.32-1.56-15.03Zm-23.48,55.27c0,10.42-2.78,18.83-8.35,25.25-5.56,6.42-12.77,9.63-21.62,9.63h-22.47c-8.99,0-16.23-3.21-21.72-9.63-5.5-6.42-8.24-14.84-8.24-25.25V60.34c0-10.41,2.75-18.83,8.24-25.25,5.49-6.42,12.73-9.63,21.72-9.63h22.47c8.99,0,16.23,3.21,21.72,9.63,5.49,6.42,8.24,14.84,8.24,25.25v39.39Z"/>
          <path class="i" d="M1403.53,116.21c-2-6.7-4.39-12.16-7.17-16.37-2.78-4.21-6.46-7.67-11.02-10.38v-.43c7.99-2.71,14.23-6.88,18.73-12.52,4.49-5.64,6.74-12.17,6.74-19.59v-15.2c0-10.99-3.78-19.83-11.34-26.54-7.57-6.7-17.48-10.06-29.75-10.06h-77.27V154.95h25.04v-56.93h38.53c5.14,0,9.63,1.71,13.48,5.14,3.85,3.42,6.7,8.35,8.56,14.77l11.56,37.03h25.9l-11.99-38.74Zm-23.65-45.16c-3.93,3.57-9.17,5.35-15.73,5.35h-46.66V26.95h51.8c4.99,0,8.99,1.43,11.99,4.28,3,2.85,4.5,6.56,4.5,11.13v14.77c0,5.71-1.97,10.35-5.89,13.91Z"/>
          <path class="i" d="M1541.05,83.35c-6.63-5.78-16.09-9.74-28.36-11.88l-38.96-6.85c-5.42-.86-9.56-2.6-12.41-5.25-2.86-2.64-4.28-5.96-4.28-9.95v-7.71c0-4.99,2.03-8.95,6.1-11.88,4.07-2.92,9.45-4.38,16.16-4.38h24.19c5.99,0,10.88,2.03,14.66,6.1,3.78,4.06,5.67,9.38,5.67,15.94h24.4c0-8.7-1.86-16.41-5.56-23.12-3.71-6.7-8.96-11.88-15.73-15.52-6.78-3.64-14.59-5.46-23.44-5.46h-24.19c-9.42,0-17.7,1.54-24.83,4.6-7.13,3.07-12.66,7.38-16.58,12.95-3.93,5.57-5.89,11.99-5.89,19.26v11.77c0,9.28,3.25,16.91,9.74,22.9,6.49,5.99,15.8,9.99,27.93,11.99l38.95,6.63c5.57,1,9.85,2.78,12.84,5.35,3,2.57,4.49,5.78,4.49,9.63v9.42c0,5-2.14,9.03-6.42,12.09-4.28,3.07-9.92,4.6-16.91,4.6h-23.76c-7.42,0-13.23-2.32-17.44-6.95-4.21-4.63-6.31-10.95-6.31-18.94h-24.61c0,14.84,4.28,26.54,12.84,35.1,8.56,8.56,20.26,12.84,35.1,12.84h24.61c9.42,0,17.77-1.57,25.04-4.71,7.28-3.14,12.91-7.52,16.91-13.16,3.99-5.64,5.99-12.09,5.99-19.37v-13.91c0-8.99-3.32-16.37-9.95-22.15Z"/>
        </g>
      </g>
      <g id="g" data-name="simbulo">
        <g>
          <path class="j" d="M119.09,0V21.92H21.92V119.12H0V21.92C0,9.82,9.81,0,21.92,0H119.09Z"/>
          <path class="j" d="M154.9,35.83v97.24c0,12.08-9.79,21.87-21.88,21.87H35.8v-21.92h97.17V35.83h21.92Z"/>
        </g>
        <g id="h" data-name="pontos">
          <g>
            <path class="i" d="M1256.77,23.75c-.76-.76-1.44-1.61-2.02-2.53,.7,.82,1.37,1.66,2.02,2.53Z"/>
            <path class="i" d="M1127.47,2.81V30.57h-13.89c-2.31,0-4.49-.57-6.41-1.57-3.71-1.94-6.44-5.51-7.22-9.76-.15-.83-.23-1.68-.23-2.55V2.81h27.76Z"/>
            <g>
              <path class="i" d="M1280.42,0V27.77h-13.89c-3.8,0-7.25-1.53-9.76-4.01-.64-.87-1.31-1.71-2.02-2.53l-1.81-4.53c-.18-.9-.28-1.84-.28-2.8V0h27.76Z"/>
              <path class="i" d="M1256.77,23.75c-.76-.76-1.44-1.61-2.02-2.53,.7,.82,1.37,1.66,2.02,2.53Z"/>
            </g>
          </g>
          <path class="i" d="M49.69,49.82h27.76v13.92c0,7.64-6.2,13.85-13.85,13.85h-13.92v-27.76h0Z"/>
          <path class="i" d="M91.24,77.46h13.97v27.76h-27.76v-13.97c0-7.61,6.18-13.79,13.79-13.79Z"/>
          <path class="i" d="M127.18,0h27.76V27.76h-13.89c-7.66,0-13.87-6.22-13.87-13.87V0h0Z"/>
          <path class="i" d="M0,127.18H14.04c7.57,0,13.72,6.15,13.72,13.72v14.04H0v-27.76H0Z"/>
        </g>
      </g>
    </g>
  </g>
</svg>