<svg viewBox="0 0 263 88" fill="none" xmlns="http://www.w3.org/2000/svg">
<path d="M115.611 51.3433C113.771 51.3433 111.946 51.1747 110.137 50.8373C108.358 50.5307 106.902 50.1013 105.767 49.5493V45.3173C108.711 46.6973 111.885 47.3873 115.289 47.3873C120.073 47.3873 122.465 45.7773 122.465 42.5573C122.465 41.4533 122.204 40.564 121.683 39.8893C121.162 39.2147 120.41 38.632 119.429 38.1413C118.448 37.62 116.853 36.9147 114.645 36.0253C111.609 34.7987 109.416 33.4493 108.067 31.9773C106.718 30.5053 106.043 28.65 106.043 26.4113C106.043 24.7247 106.503 23.2373 107.423 21.9493C108.343 20.6307 109.631 19.6187 111.287 18.9133C112.943 18.1773 114.844 17.8093 116.991 17.8093C118.739 17.8093 120.318 17.9473 121.729 18.2233C123.14 18.4993 124.52 18.944 125.869 19.5573V23.6053C123.201 22.4093 120.502 21.8113 117.773 21.8113C115.565 21.8113 113.878 22.21 112.713 23.0073C111.548 23.8047 110.965 24.9393 110.965 26.4113C110.965 27.4233 111.21 28.282 111.701 28.9873C112.222 29.662 112.974 30.2753 113.955 30.8273C114.967 31.3487 116.454 32.008 118.417 32.8053C120.594 33.6947 122.312 34.538 123.569 35.3353C124.826 36.1327 125.777 37.114 126.421 38.2793C127.096 39.414 127.433 40.84 127.433 42.5573C127.433 45.348 126.436 47.51 124.443 49.0433C122.45 50.5767 119.506 51.3433 115.611 51.3433ZM141.665 51.3433C139.426 51.3433 137.694 50.6993 136.467 49.4113C135.271 48.1233 134.673 46.2987 134.673 43.9373V32.1613H131.315V28.5733H134.673V21.9493H139.365V28.5733H144.793V32.1613H139.365V43.6153C139.365 45.0873 139.641 46.13 140.193 46.7433C140.776 47.3567 141.818 47.6633 143.321 47.6633C144.21 47.6633 145.1 47.464 145.989 47.0653V50.7453C144.824 51.144 143.382 51.3433 141.665 51.3433ZM159.898 51.3433C157.23 51.3433 155.084 50.6687 153.458 49.3193C151.864 47.9393 151.066 46.084 151.066 43.7533C151.066 41.3 151.833 39.414 153.366 38.0953C154.93 36.746 157.138 36.0713 159.99 36.0713C163.026 36.0713 165.602 36.6847 167.718 37.9113V36.7613C167.718 35.0133 167.182 33.7253 166.108 32.8973C165.066 32.0387 163.41 31.6093 161.14 31.6093C159.791 31.6093 158.472 31.7473 157.184 32.0233C155.927 32.2687 154.792 32.6213 153.78 33.0813V29.3093C154.7 28.88 155.896 28.5427 157.368 28.2973C158.84 28.0213 160.266 27.8833 161.646 27.8833C165.296 27.8833 167.994 28.696 169.742 30.3213C171.521 31.916 172.41 34.1393 172.41 36.9913V50.6533H168.04V48.1693C167.09 49.212 165.955 50.0093 164.636 50.5613C163.348 51.0827 161.769 51.3433 159.898 51.3433ZM161.048 47.8013C162.52 47.8013 163.854 47.51 165.05 46.9273C166.246 46.3447 167.136 45.532 167.718 44.4893V41.4993C165.725 40.2113 163.502 39.5673 161.048 39.5673C159.27 39.5673 157.936 39.92 157.046 40.6253C156.188 41.3 155.758 42.3427 155.758 43.7533C155.758 46.452 157.522 47.8013 161.048 47.8013ZM180.476 28.5733H184.984V32.5293C185.904 31.18 187.192 30.1833 188.848 29.5393C190.534 28.8953 192.482 28.5733 194.69 28.5733V32.2073C192.328 32.2073 190.304 32.5907 188.618 33.3573C186.931 34.124 185.766 35.3353 185.122 36.9913V50.6533H180.476V28.5733ZM209.659 51.3433C207.42 51.3433 205.687 50.6993 204.461 49.4113C203.265 48.1233 202.667 46.2987 202.667 43.9373V32.1613H199.309V28.5733H202.667V21.9493H207.359V28.5733H212.787V32.1613H207.359V43.6153C207.359 45.0873 207.635 46.13 208.187 46.7433C208.769 47.3567 209.812 47.6633 211.315 47.6633C212.204 47.6633 213.093 47.464 213.983 47.0653V50.7453C212.817 51.144 211.376 51.3433 209.659 51.3433ZM220.654 28.5733H225.162V32.5293C226.082 31.18 227.37 30.1833 229.026 29.5393C230.712 28.8953 232.66 28.5733 234.868 28.5733V32.2073C232.506 32.2073 230.482 32.5907 228.796 33.3573C227.109 34.124 225.944 35.3353 225.3 36.9913V50.6533H220.654V28.5733ZM244.041 24.2493C243.274 24.2493 242.63 23.9887 242.109 23.4673C241.587 22.946 241.327 22.302 241.327 21.5353C241.327 20.7687 241.587 20.1247 242.109 19.6033C242.63 19.082 243.274 18.8213 244.041 18.8213C244.838 18.8213 245.497 19.082 246.019 19.6033C246.571 20.1247 246.847 20.7687 246.847 21.5353C246.847 22.302 246.571 22.946 246.019 23.4673C245.497 23.9887 244.838 24.2493 244.041 24.2493ZM241.695 28.5733H246.433V50.6533H241.695V28.5733ZM255.127 16.6593H259.773V50.6533H255.127V16.6593Z" fill="white"/>
<path opacity="0.65" d="M121.065 71.2262H122.761L125.257 79.7222L127.721 71.2262H129.001L131.449 79.7222L133.945 71.2262H135.641L132.377 82.4102H130.825L128.345 73.9622L125.881 82.4102H124.329L121.065 71.2262ZM139.32 71.2262H146.696V72.6022H140.952V76.1382H145.24V77.4982H140.952V81.0502H146.696V82.4102H139.32V71.2262ZM150.303 71.2262H155.439C156.431 71.2262 157.199 71.4822 157.743 71.9942C158.287 72.5062 158.559 73.2528 158.559 74.2342C158.559 74.7888 158.426 75.2795 158.159 75.7062C157.903 76.1222 157.562 76.4315 157.135 76.6342C158.33 76.9862 158.927 77.8555 158.927 79.2422C158.927 79.8928 158.783 80.4582 158.495 80.9382C158.218 81.4075 157.834 81.7702 157.343 82.0262C156.852 82.2822 156.308 82.4102 155.711 82.4102H150.303V71.2262ZM155.231 76.0262C155.754 76.0262 156.164 75.8822 156.463 75.5942C156.762 75.3062 156.911 74.8795 156.911 74.3142C156.911 73.6635 156.762 73.2102 156.463 72.9542C156.175 72.6875 155.727 72.5542 155.119 72.5542H151.935V76.0262H155.231ZM155.343 81.0822C155.972 81.0822 156.452 80.9435 156.783 80.6662C157.114 80.3888 157.279 79.9142 157.279 79.2422C157.279 78.5702 157.103 78.0902 156.751 77.8022C156.41 77.5142 155.892 77.3702 155.199 77.3702H151.935V81.0822H155.343ZM176.055 82.6502C174.903 82.6502 173.879 82.4102 172.983 81.9302C172.087 81.4502 171.389 80.7728 170.887 79.8982C170.386 79.0128 170.135 77.9888 170.135 76.8262C170.135 75.6635 170.386 74.6395 170.887 73.7542C171.389 72.8688 172.087 72.1862 172.983 71.7062C173.879 71.2262 174.903 70.9862 176.055 70.9862C177.591 70.9862 178.877 71.3755 179.911 72.1542V73.7222C178.983 72.9008 177.746 72.4902 176.199 72.4902C175.335 72.4902 174.567 72.6662 173.895 73.0182C173.234 73.3702 172.717 73.8768 172.343 74.5382C171.97 75.1888 171.783 75.9515 171.783 76.8262C171.783 77.7008 171.97 78.4688 172.343 79.1302C172.727 79.7915 173.25 80.2982 173.911 80.6502C174.583 81.0022 175.346 81.1782 176.199 81.1782C176.989 81.1782 177.693 81.0768 178.311 80.8742C178.941 80.6608 179.522 80.3248 180.055 79.8662V81.4502C179.095 82.2502 177.762 82.6502 176.055 82.6502ZM183.735 71.2262H188.231C189.426 71.2262 190.343 71.5142 190.983 72.0902C191.623 72.6662 191.943 73.5088 191.943 74.6182C191.943 75.4395 191.724 76.1382 191.287 76.7142C190.85 77.2795 190.231 77.6635 189.431 77.8662L191.895 82.4102H190.199L187.815 77.9942H185.367V82.4102H183.735V71.2262ZM187.959 76.6182C188.674 76.6182 189.239 76.4528 189.655 76.1222C190.082 75.7808 190.295 75.2795 190.295 74.6182C190.295 73.8928 190.087 73.3755 189.671 73.0662C189.266 72.7568 188.695 72.6022 187.959 72.6022H185.367V76.6182H187.959ZM195.624 71.2262H203V72.6022H197.256V76.1382H201.544V77.4982H197.256V81.0502H203V82.4102H195.624V71.2262ZM210.75 71.2262H212.318L216.782 82.4102H215.118L213.998 79.6262H209.054L207.966 82.4102H206.286L210.75 71.2262ZM213.55 78.2662L211.534 73.0342L209.518 78.2662H213.55ZM221.296 72.6022H217.824V71.2262H226.416V72.6022H222.944V82.4102H221.296V72.6022ZM229.774 71.2262H231.422V82.4102H229.774V71.2262ZM240.997 82.6502C239.887 82.6502 238.885 82.4102 237.989 81.9302C237.093 81.4395 236.389 80.7515 235.877 79.8662C235.365 78.9808 235.109 77.9675 235.109 76.8262C235.109 75.6848 235.365 74.6715 235.877 73.7862C236.389 72.9008 237.093 72.2128 237.989 71.7222C238.885 71.2315 239.887 70.9862 240.997 70.9862C242.106 70.9862 243.109 71.2315 244.005 71.7222C244.901 72.2128 245.605 72.9008 246.117 73.7862C246.629 74.6715 246.885 75.6848 246.885 76.8262C246.885 77.9675 246.629 78.9808 246.117 79.8662C245.605 80.7515 244.901 81.4395 244.005 81.9302C243.109 82.4102 242.106 82.6502 240.997 82.6502ZM240.997 81.1782C241.786 81.1782 242.501 81.0022 243.141 80.6502C243.791 80.2875 244.303 79.7808 244.677 79.1302C245.05 78.4688 245.237 77.7008 245.237 76.8262C245.237 75.9622 245.05 75.2048 244.677 74.5542C244.314 73.8928 243.813 73.3862 243.173 73.0342C242.533 72.6715 241.818 72.4902 241.029 72.4902C240.229 72.4902 239.503 72.6662 238.853 73.0182C238.213 73.3702 237.701 73.8768 237.317 74.5382C236.943 75.1995 236.757 75.9622 236.757 76.8262C236.757 77.7008 236.943 78.4688 237.317 79.1302C237.69 79.7808 238.197 80.2875 238.837 80.6502C239.487 81.0022 240.207 81.1782 240.997 81.1782ZM250.567 71.2262H252.119L257.815 79.6582V71.2262H259.463V82.4102H257.895L252.199 73.9782V82.4102H250.567V71.2262Z" fill="white"/>
<path d="M50.7831 69.1265L64.9884 84.8359V69.1265V15.616L29.6862 45.7959L2.39587 69.1265H50.7831Z" fill="url(#paint0_linear_817_51)" fill-opacity="0.45"/>
<path d="M70.9033 58.5665L85.6072 69.1265H2.39587L64.9884 15.616V84.8359L2.39587 15.616L30.9902 33.6976" stroke="black" stroke-width="1.3142"/>
<path d="M70.9033 58.5665L85.6072 69.1265H2.39587L64.9884 15.616V84.8359L2.39587 15.616L30.9902 33.6976" stroke="url(#paint1_linear_817_51)" stroke-width="1.3142"/>
<defs>
<linearGradient id="paint0_linear_817_51" x1="1.30598" y1="46.5722" x2="78.6553" y2="46.5722" gradientUnits="userSpaceOnUse">
<stop stop-color="white"/>
<stop offset="1" stop-color="white" stop-opacity="0.2"/>
</linearGradient>
<linearGradient id="paint1_linear_817_51" x1="1.30598" y1="46.5722" x2="78.6553" y2="46.5722" gradientUnits="userSpaceOnUse">
<stop stop-color="white"/>
<stop offset="1" stop-color="white" stop-opacity="0.44"/>
</linearGradient>
</defs>
</svg>
